<svg width="78" height="39" viewBox="0 0 78 39" fill="none" xmlns="http://www.w3.org/2000/svg">
<path id="Ellipse 7" d="M78 0C78 5.12155 76.9912 10.193 75.0313 14.9247C73.0714 19.6564 70.1986 23.9557 66.5772 27.5772C62.9557 31.1986 58.6563 34.0714 53.9247 36.0313C49.193 37.9912 44.1216 39 39 39C33.8784 39 28.807 37.9912 24.0753 36.0313C19.3436 34.0714 15.0443 31.1986 11.4228 27.5772C7.80135 23.9557 4.92863 19.6563 2.9687 14.9247C1.00876 10.193 -4.4774e-07 5.12155 0 -3.8147e-06H1.04203C1.04203 4.98471 2.02384 9.92061 3.9314 14.5259C5.83897 19.1312 8.63493 23.3156 12.1597 26.8403C15.6844 30.3651 19.8688 33.161 24.4741 35.0686C29.0794 36.9762 34.0153 37.958 39 37.958C43.9847 37.958 48.9206 36.9762 53.5259 35.0686C58.1312 33.161 62.3156 30.3651 65.8403 26.8403C69.3651 23.3156 72.161 19.1312 74.0686 14.5259C75.9762 9.92062 76.958 4.98471 76.958 0H78Z" fill="white"/>
</svg>
