<svg width="12" height="13" viewBox="0 0 12 13" fill="none" xmlns="http://www.w3.org/2000/svg">
<g id="right-arrow (1) 1" clip-path="url(#clip0_10_129)">
<g id="Group">
<g id="Group_2">
<path id="Vector" d="M9.33352 6.03176L3.99337 0.691706C3.86985 0.568097 3.70498 0.5 3.52917 0.5C3.35337 0.5 3.18849 0.568097 3.06498 0.691706L2.67172 1.08487C2.41582 1.34107 2.41582 1.75745 2.67172 2.01326L7.15597 6.49751L2.66674 10.9867C2.54323 11.1104 2.47504 11.2751 2.47504 11.4508C2.47504 11.6267 2.54323 11.7915 2.66674 11.9152L3.06001 12.3083C3.18362 12.4319 3.3484 12.5 3.5242 12.5C3.7 12.5 3.86488 12.4319 3.98839 12.3083L9.33352 6.96336C9.45732 6.83936 9.52532 6.6738 9.52493 6.49781C9.52532 6.32112 9.45732 6.15566 9.33352 6.03176Z" fill="white"/>
</g>
</g>
</g>
<defs>
<clipPath id="clip0_10_129">
<rect width="12" height="12" fill="white" transform="translate(0 0.5)"/>
</clipPath>
</defs>
</svg>
